<svg width="21" height="17" viewBox="0 0 19 16" fill="none"
    xmlns="http://www.w3.org/2000/svg">
    <style>
        path {
            fill: white;
            stroke-width: "2px";
        }
    </style>
    <path d="M18.7217 15.4279H17.2132C17.2349 15.3537 17.2459 15.2765 17.246 15.199V14.3961C17.368 14.3092 17.4677 14.1932 17.5366 14.0581C17.6055 13.9229 17.6415 13.7726 17.6416 13.6201V10.8625C17.6417 10.6093 17.5903 10.3588 17.4906 10.1273H17.6565C17.8385 10.1271 18.013 10.0527 18.1417 9.92042C18.2705 9.78815 18.3428 9.60881 18.343 9.42175V9.11664C18.3428 8.92958 18.2705 8.75024 18.1417 8.61797C18.013 8.4857 17.8385 8.4113 17.6565 8.41109H17.1741C16.9939 8.41103 16.8209 8.48406 16.6928 8.61432L16.2188 7.34773C16.1514 7.16984 16.0335 7.01691 15.8804 6.90885C15.7273 6.80078 15.5461 6.74257 15.3603 6.7418H10.0225C9.83677 6.74258 9.65556 6.80079 9.50245 6.90885C9.34935 7.01692 9.23144 7.16985 9.16406 7.34773L8.68592 8.6253C8.62232 8.55986 8.54678 8.50795 8.46363 8.47256C8.38048 8.43716 8.29135 8.41897 8.20135 8.41902H7.71893C7.53692 8.41923 7.36241 8.49363 7.23371 8.6259C7.10501 8.75817 7.03261 8.93751 7.03241 9.12457V9.42968C7.03261 9.61674 7.10501 9.79608 7.23371 9.92835C7.36241 10.0606 7.53692 10.135 7.71893 10.1352H7.88897C7.79142 10.3646 7.74113 10.6122 7.74125 10.8625V13.6201C7.74131 13.7726 7.77731 13.9229 7.8462 14.0581C7.91508 14.1932 8.0148 14.3092 8.13681 14.3961V15.199C8.13687 15.2765 8.14794 15.3537 8.16966 15.4279H2.83956V12.6874L5.88898 9.08295C5.88963 9.08223 5.89022 9.08146 5.89086 9.08072L8.90414 5.51895C8.90564 5.51725 8.90705 5.5155 8.90852 5.51378L10.3267 3.83747C10.3278 3.83623 10.3288 3.83489 10.3299 3.83362L11.8659 2.01801C11.922 1.9519 11.9648 1.87508 11.9919 1.79195C12.0191 1.70882 12.03 1.62101 12.0241 1.53353C12.0182 1.44606 11.9955 1.36064 11.9575 1.28216C11.9194 1.20369 11.8667 1.13369 11.8023 1.07618L10.7802 0.163068C10.65 0.0473036 10.4805 -0.0107416 10.3088 0.00164175C10.1371 0.0140251 9.97717 0.095828 9.86403 0.229139L0.668066 11.0985C0.464166 11.2261 0.295623 11.4054 0.178629 11.6193C0.0616344 11.8331 0.000121551 12.0743 8.03986e-10 12.3197L8.03985e-10 15.714C-2.77734e-06 15.7515 0.00719429 15.7887 0.0211802 15.8234C0.0351661 15.8581 0.055667 15.8897 0.0815119 15.9162C0.107357 15.9428 0.13804 15.9639 0.171808 15.9782C0.205577 15.9926 0.24177 16 0.27832 16H18.7217C18.7955 16 18.8663 15.9699 18.9185 15.9162C18.9707 15.8626 19 15.7898 19 15.714C19 15.6381 18.9707 15.5653 18.9185 15.5117C18.8663 15.4581 18.7955 15.4279 18.7217 15.4279ZM10.284 0.604635C10.3002 0.585523 10.323 0.573769 10.3476 0.571947C10.3722 0.570125 10.3965 0.578383 10.4151 0.594914L11.4369 1.50777C11.4462 1.51598 11.4538 1.526 11.4592 1.53724C11.4647 1.54848 11.4679 1.56071 11.4688 1.57324C11.4697 1.58577 11.4682 1.59836 11.4642 1.61027C11.4603 1.62217 11.4541 1.63314 11.446 1.64252L10.1446 3.18083L9.22472 1.85668L10.284 0.604635ZM8.84914 2.3006L9.76901 3.62476L8.71626 4.86912L7.77949 3.56488L8.84914 2.3006ZM7.4053 4.00717L8.34208 5.31142L7.24127 6.61261L6.3251 5.28391L7.4053 4.00717ZM5.94923 5.72818L6.86541 7.0569L5.70372 8.43004L4.77599 7.11491L5.94923 5.72818ZM4.40106 7.55807L5.32879 8.87321L4.24716 10.1517L3.32726 8.82725L4.40106 7.55807ZM2.28291 15.4279H0.556641V12.3197C0.556895 12.0922 0.644945 11.8741 0.801476 11.7132C0.958006 11.5523 1.17023 11.4618 1.3916 11.4616H1.44795C1.66932 11.4618 1.88155 11.5523 2.03808 11.7132C2.19461 11.8741 2.28266 12.0922 2.28291 12.3197V15.4279ZM1.57709 10.8959L2.95168 9.27118L3.87159 10.5957L2.77565 11.8911C2.69308 11.6226 2.53537 11.385 2.32222 11.208C2.10907 11.031 1.84991 10.9224 1.57709 10.8959ZM9.68359 7.55309C9.71019 7.48287 9.75675 7.4225 9.81719 7.37983C9.87764 7.33717 9.94917 7.31418 10.0225 7.31388H15.3603C15.4336 7.31418 15.5052 7.33716 15.5656 7.37982C15.6261 7.42249 15.6727 7.48286 15.6993 7.55309L16.3683 9.34078H9.01454L9.68359 7.55309ZM8.20135 9.56316H7.71893C7.6845 9.56312 7.65149 9.54904 7.62714 9.52402C7.60279 9.499 7.58909 9.46507 7.58905 9.42968V9.12458C7.58909 9.08919 7.60279 9.05526 7.62714 9.03024C7.65149 9.00521 7.6845 8.99114 7.71893 8.99109H8.20135C8.23579 8.99114 8.2688 9.00521 8.29315 9.03024C8.3175 9.05526 8.33119 9.08919 8.33124 9.12458V9.42968C8.33119 9.46507 8.3175 9.499 8.29315 9.52402C8.2688 9.54904 8.23579 9.56312 8.20135 9.56316ZM9.63351 15.199C9.63344 15.2597 9.60994 15.3179 9.56818 15.3608C9.52641 15.4037 9.46978 15.4279 9.41071 15.4279H8.91625C8.85718 15.4279 8.80055 15.4037 8.75878 15.3608C8.71701 15.3179 8.69352 15.2597 8.69345 15.199V14.5653H9.63351L9.63351 15.199ZM10.1573 15.4279C10.179 15.3537 10.1901 15.2765 10.1901 15.199V14.5653H15.1927V15.199C15.1927 15.2765 15.2038 15.3537 15.2255 15.4279H10.1573ZM10.4442 13.9932L10.7737 13.6202C10.8172 13.571 10.8702 13.5317 10.9293 13.5048C10.9885 13.4779 11.0524 13.464 11.1171 13.4639H14.2608C14.3263 13.4639 14.3912 13.4782 14.4509 13.5058C14.5107 13.5334 14.5641 13.5738 14.6077 13.6241L14.9266 13.9932H10.4442ZM16.6894 15.199C16.6893 15.2597 16.6658 15.3179 16.624 15.3608C16.5823 15.4037 16.5256 15.4279 16.4666 15.4279H15.9721C15.913 15.4279 15.8564 15.4037 15.8146 15.3608C15.7729 15.3179 15.7494 15.2597 15.7493 15.199V14.5653H16.6894L16.6894 15.199ZM17.0849 13.6201C17.0848 13.719 17.0465 13.8139 16.9784 13.8838C16.9104 13.9538 16.8181 13.9931 16.7218 13.9932H15.6709L15.0239 13.2443C14.9282 13.1335 14.8106 13.0448 14.6791 12.9841C14.5476 12.9233 14.405 12.8919 14.2608 12.8918H11.1171C10.9748 12.8919 10.8341 12.9226 10.704 12.9818C10.5739 13.041 10.4572 13.1275 10.3615 13.2357L9.69239 13.9932H8.66102C8.56474 13.9931 8.47245 13.9538 8.40437 13.8838C8.3363 13.8139 8.29801 13.719 8.2979 13.6201V10.8625C8.29749 10.5466 8.41436 10.2425 8.62467 10.0121C8.65387 9.98004 8.6814 9.94674 8.70811 9.91285H16.6747C16.7014 9.94673 16.729 9.98001 16.7581 10.0121C16.9684 10.2424 17.0853 10.5466 17.0849 10.8625L17.0849 13.6201ZM17.0442 9.42175V9.11664C17.0443 9.08125 17.058 9.04733 17.0823 9.0223C17.1067 8.99728 17.1397 8.9832 17.1741 8.98316H17.6565C17.691 8.9832 17.724 8.99728 17.7483 9.0223C17.7727 9.04733 17.7864 9.08125 17.7864 9.11664V9.42175C17.7864 9.45714 17.7727 9.49106 17.7483 9.51609C17.724 9.54111 17.691 9.55519 17.6565 9.55523H17.1741C17.1397 9.55519 17.1067 9.54111 17.0823 9.51609C17.058 9.49106 17.0443 9.45714 17.0442 9.42175ZM9.72012 10.6544C9.55498 10.6544 9.39355 10.7047 9.25624 10.799C9.11893 10.8933 9.01191 11.0273 8.94872 11.1841C8.88552 11.3409 8.86899 11.5134 8.9012 11.6799C8.93342 11.8464 9.01294 11.9993 9.12971 12.1193C9.24648 12.2393 9.39526 12.321 9.55723 12.3541C9.71919 12.3872 9.88708 12.3702 10.0396 12.3053C10.1922 12.2403 10.3226 12.1303 10.4144 11.9892C10.5061 11.8481 10.5551 11.6822 10.5551 11.5125C10.5548 11.285 10.4668 11.0669 10.3102 10.906C10.1537 10.7451 9.94149 10.6546 9.72012 10.6544ZM9.72012 11.7985C9.66507 11.7985 9.61126 11.7817 9.56549 11.7503C9.51972 11.7189 9.48405 11.6742 9.46299 11.6219C9.44192 11.5697 9.43641 11.5122 9.44715 11.4567C9.45789 11.4012 9.48439 11.3502 9.52332 11.3102C9.56224 11.2702 9.61183 11.243 9.66582 11.2319C9.71981 11.2209 9.77577 11.2266 9.82663 11.2482C9.87748 11.2699 9.92095 11.3065 9.95153 11.3536C9.98212 11.4006 9.99844 11.4559 9.99844 11.5125C9.99836 11.5883 9.96901 11.661 9.91683 11.7147C9.86465 11.7683 9.79391 11.7984 9.72012 11.7985ZM15.6627 10.6544C15.4976 10.6544 15.3361 10.7047 15.1988 10.799C15.0615 10.8933 14.9545 11.0273 14.8913 11.1841C14.8281 11.3409 14.8116 11.5134 14.8438 11.6799C14.876 11.8464 14.9555 11.9993 15.0723 12.1193C15.1891 12.2393 15.3378 12.321 15.4998 12.3541C15.6618 12.3872 15.8296 12.3702 15.9822 12.3053C16.1348 12.2403 16.2652 12.1303 16.3569 11.9892C16.4487 11.8481 16.4977 11.6822 16.4977 11.5125C16.4974 11.285 16.4093 11.0669 16.2528 10.906C16.0963 10.7451 15.8841 10.6546 15.6627 10.6544ZM15.6627 11.7985C15.6076 11.7985 15.5538 11.7817 15.5081 11.7503C15.4623 11.7189 15.4266 11.6742 15.4056 11.6219C15.3845 11.5697 15.379 11.5122 15.3897 11.4567C15.4005 11.4012 15.427 11.3502 15.4659 11.3102C15.5048 11.2702 15.5544 11.243 15.6084 11.2319C15.6624 11.2209 15.7183 11.2266 15.7692 11.2482C15.8201 11.2699 15.8635 11.3065 15.8941 11.3536C15.9247 11.4006 15.941 11.4559 15.941 11.5125C15.9409 11.5883 15.9116 11.661 15.8594 11.7147C15.8072 11.7683 15.7365 11.7984 15.6627 11.7985ZM1.70442 12.1911C1.69747 12.1739 1.68876 12.1574 1.67844 12.142C1.6686 12.1262 1.65702 12.1116 1.64394 12.0985C1.61146 12.0654 1.57159 12.0409 1.5278 12.0273C1.484 12.0136 1.43763 12.0112 1.39272 12.0203C1.37496 12.0239 1.35756 12.0293 1.34076 12.0363C1.32402 12.0435 1.30799 12.0523 1.29289 12.0626C1.26246 12.0838 1.23626 12.1107 1.2157 12.142C1.20565 12.1575 1.19707 12.1739 1.19007 12.1911C1.18327 12.2084 1.17806 12.2263 1.17449 12.2446C1.17082 12.263 1.16896 12.2818 1.16895 12.3006C1.16905 12.3764 1.19841 12.4491 1.25059 12.5027C1.26332 12.5162 1.27751 12.5281 1.29288 12.5382C1.30788 12.5488 1.32393 12.5578 1.34076 12.5649C1.35755 12.5719 1.37495 12.5773 1.39272 12.5809C1.41067 12.5847 1.42894 12.5866 1.44727 12.5866C1.52104 12.5865 1.59177 12.5564 1.64394 12.5027C1.69611 12.4491 1.72547 12.3764 1.72559 12.3006C1.72558 12.2818 1.72371 12.263 1.72001 12.2446C1.71646 12.2263 1.71124 12.2084 1.70442 12.1911Z" fill="black" fill-opacity="0.5"/>
</svg>
