<svg width="15" height="13" viewBox="0 0 15 13" fill="none"
    xmlns="http://www.w3.org/2000/svg">
    <style>
        path {
            fill: white;
        }
    </style>
    <path d="M13.348 4.65663L12.436 1.99598C12.3037 1.6087 12.0493 1.2718 11.7088 1.03316C11.3683 0.794516 10.9591 0.666264 10.5394 0.666627H4.46071C4.04097 0.666264 3.63178 0.794516 3.2913 1.03316C2.95081 1.2718 2.69634 1.6087 2.56404 1.99598L1.65204 4.65663C1.40978 4.75545 1.20289 4.92156 1.05727 5.13416C0.911649 5.34675 0.833767 5.59639 0.833374 5.85181V9.09255C0.833374 9.58061 1.11537 10.0013 1.52604 10.2223C1.51737 10.2651 1.50004 10.3039 1.50004 10.3487V11.6851C1.50004 11.857 1.57028 12.0219 1.6953 12.1435C1.82033 12.265 1.9899 12.3333 2.16671 12.3333H2.83337C3.01019 12.3333 3.17975 12.265 3.30478 12.1435C3.4298 12.0219 3.50004 11.857 3.50004 11.6851V10.3888H11.5V11.6851C11.5 11.857 11.5703 12.0219 11.6953 12.1435C11.8203 12.265 11.9899 12.3333 12.1667 12.3333H12.8334C13.0102 12.3333 13.1798 12.265 13.3048 12.1435C13.4298 12.0219 13.5 11.857 13.5 11.6851V10.3487C13.5 10.3039 13.4827 10.2644 13.474 10.2223C13.683 10.1115 13.8575 9.94826 13.9793 9.74953C14.1012 9.55081 14.1659 9.32391 14.1667 9.09255V5.85181C14.1667 5.3145 13.828 4.85302 13.348 4.65663ZM2.16671 9.09255V5.85181H12.8334L12.8347 9.09255H2.16671ZM4.46071 1.96292H10.5387C10.826 1.96292 11.0807 2.14052 11.1714 2.40626L11.9087 4.55552H3.09137L3.82804 2.40626C3.87227 2.27714 3.95719 2.16484 4.07074 2.08527C4.18429 2.00569 4.32073 1.96289 4.46071 1.96292Z" fill="white"/>
</svg>
